<svg xmlns="http://www.w3.org/2000/svg" xmlns:xlink="http://www.w3.org/1999/xlink" version="1.1" x="0px" y="0px" viewBox="0 0 64 80" enable-background="new 0 0 64 64" xml:space="preserve"><g><g><path d="M28,7H8C7.448,7,7,7.448,7,8v20c0,0.552,0.448,1,1,1h20c0.552,0,1-0.448,1-1V8C29,7.448,28.552,7,28,7z"/><path d="M56,7H36c-0.553,0-1,0.448-1,1v20c0,0.552,0.447,1,1,1h20c0.553,0,1-0.448,1-1V8C57,7.448,56.553,7,56,7z"/><path d="M28,35H8c-0.552,0-1,0.447-1,1v20c0,0.553,0.448,1,1,1h20c0.552,0,1-0.447,1-1V36C29,35.447,28.552,35,28,35z"/><path d="M56,35H36c-0.553,0-1,0.447-1,1v20c0,0.553,0.447,1,1,1h20c0.553,0,1-0.447,1-1V36C57,35.447,56.553,35,56,35z"/></g></g></svg>