<svg xmlns="http://www.w3.org/2000/svg" xmlns:xlink="http://www.w3.org/1999/xlink" version="1.1" x="0px" y="0px" viewBox="0 0 40 46.25" style="enable-background:new 0 0 40 37;" xml:space="preserve"><title>more</title><desc>Created with Sketch.</desc><g><g transform="translate(-1111.000000, -1952.000000)"><path d="M1112.2,1955c-0.7,0-1.2-0.7-1.2-1.5s0.6-1.5,1.2-1.5h37.5c0.7,0,1.2,0.7,1.2,1.5s-0.6,1.5-1.2,1.5H1112.2z     M1112.2,1972c-0.7,0-1.2-0.7-1.2-1.5s0.6-1.5,1.2-1.5h37.5c0.7,0,1.2,0.7,1.2,1.5s-0.6,1.5-1.2,1.5H1112.2z M1112.2,1989    c-0.7,0-1.2-0.7-1.2-1.5s0.6-1.5,1.2-1.5h37.5c0.7,0,1.2,0.7,1.2,1.5s-0.6,1.5-1.2,1.5H1112.2z"/></g></g></svg>